<?xml version="1.0" encoding="utf-8"?>
<!-- Generator: Adobe Illustrator 16.0.0, SVG Export Plug-In . SVG Version: 6.00 Build 0)  -->
<!DOCTYPE svg PUBLIC "-//W3C//DTD SVG 1.1//EN" "http://www.w3.org/Graphics/SVG/1.1/DTD/svg11.dtd">
<svg enable-background="new 0 0 595.28 841.89" height="841.89px" id="Calque_1"  version="1.1" viewBox="0 0 595.28 841.89"
	 width="595.28px" x="0px" xmlns="http://www.w3.org/2000/svg" y="0px" xml:space="preserve">
<path d="M350.161,312.378c47.354,0,88.471,26.079,111.169,64.493l133.795,0.155v-72.511
	c0-26.984-21.71-48.873-48.343-48.873H48.193C21.478,255.642,0,277.53,0,304.514l0.137,71.898l238.778,0.161
	C261.774,338.296,302.724,312.378,350.161,312.378" fill="#010202"/>
<path d="M125.044,232.622H80.69l-5.126,16.162h53.165L125.044,232.622z" fill="#010202"/>
<path d="M524.983,224.002h-59.058l-10.478,24.93h79.113L524.983,224.002z" fill="#010202"/>
<path d="M322.267,240.325h-50.831v-24.859h50.831V240.325z M368.865,205.478H225.343l-29.567,43.765h200.163
	L368.865,205.478z" fill="#010202"/>
<path d="M468.265,389.836c7.399,16.471,11.769,34.604,11.769,53.902c0,72.505-58.158,131.36-129.866,131.36
	c-71.803,0-129.943-58.861-129.943-131.36c0-19.299,4.304-37.432,11.763-53.986H0v197.943c0,26.829,21.478,48.718,48.193,48.718
	h498.583c26.633,0,48.343-21.889,48.343-48.718l0.16-197.859H468.265z" fill="#010202"/>
<path d="M420.981,400.58c-2.035-3.661-4.602-7.095-7.394-10.363c-15.161-18.454-37.854-30.585-63.421-30.585
	c-25.65,0-48.342,12.06-63.504,30.431c-2.786,3.352-5.357,6.786-7.542,10.518c-7.608,12.662-12.216,27.294-12.216,43.158
	c0,46.36,37.265,84.018,83.262,84.018c45.771,0,83.042-37.657,83.042-84.018C433.203,427.88,428.679,413.248,420.981,400.58" fill="#010202"/>
</svg>
