<?xml version="1.0" encoding="utf-8"?>
<!-- Generator: Adobe Illustrator 16.0.0, SVG Export Plug-In . SVG Version: 6.00 Build 0)  -->
<!DOCTYPE svg PUBLIC "-//W3C//DTD SVG 1.1//EN" "http://www.w3.org/Graphics/SVG/1.1/DTD/svg11.dtd">
<svg enable-background="new 0 0 595.28 841.89" height="841.89px" id="Calque_1"  version="1.1" viewBox="0 0 595.28 841.89"
	 width="595.28px" x="0px" xmlns="http://www.w3.org/2000/svg" y="0px" xml:space="preserve">
<g>
	<path d="M195.222,506.946c-0.542,0.148-1.083,0.22-1.613,0.22c-2.602,0-4.988-1.714-5.727-4.34
		c-0.887-3.16,0.952-6.452,4.119-7.34c4.632-1.304,9.774-3.262,15.811-6c2.286-1.036,6.513-2.471,6.513-2.471V246.302L77.41,296.419
		v300.497l136.914-50.093V499.13c0-0.215-0.958,0.898-1.607,1.19C206.133,503.309,200.437,505.481,195.222,506.946z
		 M122.377,385.407c-3.22,1.024-6.352,2.078-9.328,3.072c-2.673,0.899-5.232,1.756-7.631,2.524c-0.602,0.19-1.209,0.28-1.81,0.28
		c-2.524,0-4.863-1.613-5.674-4.143c-0.993-3.125,0.732-6.482,3.864-7.482c2.345-0.744,4.845-1.589,7.471-2.465
		c3.029-1.012,6.221-2.083,9.506-3.125c3.12-1,6.478,0.732,7.478,3.869C127.24,381.056,125.509,384.407,122.377,385.407z
		 M143.635,373.728c-0.262-3.28,2.185-6.149,5.459-6.411c7.268-0.583,14.155-0.036,19.918,1.738c3.143,0.97,4.905,4.304,3.94,7.441
		c-0.792,2.565-3.143,4.203-5.69,4.203c-0.584,0-1.167-0.083-1.75-0.262c-4.311-1.328-9.739-1.714-15.466-1.25
		C146.725,379.443,143.896,377.002,143.635,373.728z M169.75,501.993c-1.173,1.238-2.751,1.863-4.334,1.863
		c-1.465,0-2.935-0.536-4.09-1.619c-4.56-4.304-7.804-10.603-9.638-18.728c-0.72-3.209,1.292-6.394,4.495-7.12
		c3.196-0.726,6.387,1.292,7.119,4.495c1.304,5.773,3.387,10.048,6.197,12.691C171.893,495.826,172.006,499.594,169.75,501.993z
		 M178.852,442.357l-1.399,2.066c-2.952,4.34-5.744,8.429-8.155,12.549c-1.106,1.893-3.101,2.952-5.143,2.952
		c-1.019,0-2.054-0.263-2.994-0.815c-2.846-1.655-3.798-5.305-2.138-8.138c2.613-4.488,5.655-8.947,8.59-13.257l1.394-2.048
		c1.851-2.714,5.554-3.435,8.269-1.583C179.988,435.941,180.703,439.638,178.852,442.357z M186.174,418.535
		c-3.186-0.815-5.107-4.054-4.298-7.238c0.601-2.352,0.898-4.644,0.898-6.828c0-2.542-0.393-4.971-1.202-7.429
		c-1.024-3.119,0.672-6.488,3.798-7.518c3.107-1.036,6.488,0.667,7.519,3.798c1.19,3.625,1.797,7.375,1.797,11.149
		c0,3.179-0.428,6.471-1.273,9.774c-0.685,2.691-3.102,4.482-5.763,4.482C187.161,418.719,186.668,418.666,186.174,418.535z" fill="#010202"/>
	<path d="M386.955,296.419v172.798c0,0.804,2.328,1.542,3.394,2.357c2.625,1.977,3.054,5.709,1.071,8.334
		c-1.083,1.435-4.465,2.167-4.465,2.28v114.729l130.962-50.094V246.302L386.955,296.419z M430.905,506.993
		c-1.119,1.869-3.096,2.905-5.12,2.905c-1.035,0-2.089-0.268-3.042-0.839c-4.631-2.763-9.644-6.066-15.322-10.091
		c-2.685-1.898-3.315-5.613-1.411-8.298c1.894-2.685,5.626-3.327,8.299-1.411c5.423,3.846,10.173,6.977,14.53,9.566
		C431.661,500.522,432.584,504.172,430.905,506.993z M437.304,396.944c-1.029,0-2.077-0.268-3.029-0.833
		c-2.834-1.672-3.763-5.333-2.09-8.155l14.888-25.115l-31.187-13.292c-3.023-1.292-4.429-4.786-3.137-7.81s4.786-4.429,7.81-3.137
		l32.634,13.912l14.316-24.156c1.673-2.833,5.334-3.762,8.155-2.089c2.833,1.672,3.762,5.333,2.089,8.155l-13.513,22.793
		l23.502,10.024c3.024,1.292,4.429,4.786,3.137,7.811c-0.964,2.262-3.16,3.613-5.477,3.613c-0.779,0-1.577-0.149-2.339-0.477
		l-24.954-10.638l-15.691,26.472C441.322,395.902,439.34,396.944,437.304,396.944z M472.396,520.565
		c-3.607,1.024-7.256,1.685-11.352,1.536c-2.894,0-5.935-0.298-9.042-0.881c-3.232-0.613-5.352-3.721-4.745-6.953
		c0.607-3.232,3.727-5.34,6.953-4.744c2.394,0.452,4.56,0.602,6.911,0.673c2.798,0,5.494-0.369,8.03-1.084
		c3.132-0.904,6.447,0.935,7.346,4.102C477.391,516.381,475.557,519.667,472.396,520.565z M475.349,412.981
		c-0.994,0.637-2.107,0.94-3.209,0.94c-1.958,0-3.875-0.964-5.018-2.738c-3.161-4.929-6.507-9.774-9.936-14.406
		c-1.959-2.637-1.399-6.364,1.244-8.322c2.637-1.958,6.363-1.405,8.322,1.244c3.583,4.834,7.077,9.906,10.388,15.055
		C478.914,407.522,478.11,411.207,475.349,412.981z M481.271,436.512c-1.393-2.976-0.125-6.523,2.852-7.923
		c2.977-1.393,6.519-0.125,7.923,2.852c2.78,5.917,5.113,11.716,6.947,17.233c1.035,3.113-0.655,6.488-3.78,7.524
		c-0.619,0.202-1.25,0.304-1.869,0.304c-2.5,0-4.822-1.584-5.649-4.084C486.016,447.353,483.849,442.001,481.271,436.512z
		 M499.088,499.618c-1.041,2.089-3.143,3.298-5.333,3.298c-0.888,0-1.798-0.196-2.649-0.625c-2.94-1.465-4.137-5.042-2.667-7.983
		c2.149-4.321,3.388-9.315,3.673-14.852c0.173-3.286,2.965-5.769,6.257-5.638c3.286,0.173,5.81,2.971,5.637,6.257
		C503.636,487.248,501.976,493.832,499.088,499.618z" fill="#010202"/>
	<path d="M366.9,462.33c0.75-1.066,2.196-1.709,2.196-2.102v-163.81l-136.914-50.117v233.16
		c0-1.405,3.815-2.661,5.209-3.435c3.5-1.947,8.263-3.941,11.798-5.941l5.59-2.81c2.869-1.613,6.805-0.595,8.411,2.274
		c1.607,2.869,0.75,6.494-2.113,8.107l-4.893,2.798c-3.566,2.012-7.078,4.018-10.603,5.977c-0.916,0.512-1.887,0.75-2.863,0.75
		c-2.095,0-6.56-1.107-7.643-3.06c-0.257-0.453-2.894-2.578-2.894-3.06v65.767l136.914,50.093V471.734
		c0-0.356-0.631-0.756-1.131-1.112C365.275,468.734,365.007,465.021,366.9,462.33z M303.039,456.717
		c-4.738,1.809-9.918,4.101-15.835,7.018c-0.845,0.41-1.738,0.613-2.619,0.613c-2.196,0-4.315-1.221-5.346-3.328
		c-1.446-2.946-0.238-6.518,2.715-7.971c6.25-3.077,11.757-5.512,16.834-7.459c3.084-1.137,6.513,0.363,7.691,3.436
		C307.646,452.103,306.11,455.543,303.039,456.717z M352.411,452.978c-0.982,2.221-3.161,3.542-5.446,3.542
		c-0.804,0-1.62-0.16-2.405-0.512c-5.644-2.5-10.638-3.947-15.263-4.411c-3.274-0.333-5.655-3.25-5.328-6.524
		c0.339-3.268,3.232-5.59,6.524-5.328c5.899,0.602,12.078,2.357,18.894,5.376C352.388,446.459,353.744,449.972,352.411,452.978z" fill="#010202"/>
	<path d="M220.372,490.611v8.524c1.756-1.696,2.381-4.34,1.321-6.685
		C221.366,491.73,220.902,491.123,220.372,490.611z" fill="#010202"/>
	<path d="M232.183,481.063v-1.602C232.183,480.51,232.183,479.968,232.183,481.063z" fill="#010202"/>
	<path d="M466.753,389.699c-1.959-2.649-5.686-3.202-8.322-1.244c-2.644,1.958-3.203,5.685-1.244,8.322
		c3.429,4.631,6.774,9.477,9.936,14.406c1.137,1.774,3.06,2.738,5.018,2.738c1.102,0,2.215-0.304,3.209-0.94
		c2.768-1.78,3.571-5.465,1.798-8.227C473.837,399.605,470.336,394.539,466.753,389.699z" fill="#010202"/>
</g>
</svg>
