<?xml version="1.0" encoding="utf-8"?>
<!-- Generator: Adobe Illustrator 16.0.0, SVG Export Plug-In . SVG Version: 6.00 Build 0)  -->
<!DOCTYPE svg PUBLIC "-//W3C//DTD SVG 1.1//EN" "http://www.w3.org/Graphics/SVG/1.1/DTD/svg11.dtd">
<svg enable-background="new 0 0 595.28 841.89" height="841.89px" id="Calque_1"  version="1.1" viewBox="0 0 595.28 841.89"
	 width="595.28px" x="0px" xmlns="http://www.w3.org/2000/svg" y="0px" xml:space="preserve">
<g>
	<path d="M474.89,199.234c-14.286-0.596-27.383,4.762-36.907,15.477l-98.816,108.341l-225.611-30.359
		c-5.357-0.596-11.311,1.19-15.478,5.357L79.028,317.1c-4.762,4.762-3.571,12.501,2.382,15.478l85.72,42.86l-11.905,11.906
		c-5.953,5.953-5.953,15.477,0,21.43c5.953,5.953,15.478,5.953,21.43,0l19.049-19.049l58.338,28.574l-83.339,94.65l-57.147-7.144
		c-5.952-1.19-11.905,0.595-16.668,4.762l-2.976,2.977c-4.167,4.167-3.572,11.905,1.785,14.882l58.338,35.717l35.717,58.338
		c3.571,5.357,10.715,6.548,14.882,1.786l2.977-2.977c4.167-4.167,5.952-10.715,4.762-16.668l-7.143-57.147l94.649-83.339
		l27.978,57.147l-19.049,19.049c-5.952,5.952-5.952,15.477,0,21.43c5.953,5.953,15.478,5.953,21.43,0l11.906-11.905l43.455,86.911
		c2.977,5.952,10.715,7.143,15.478,2.381l19.049-19.049c4.167-4.167,5.953-9.524,5.357-15.478l-30.359-225.611l108.341-98.816
		c10.12-9.524,16.073-23.216,15.478-36.907l0,0C518.346,219.474,499.296,200.425,474.89,199.234z" fill="#010202"/>
</g>
</svg>
